<svg width="32" height="32" viewBox="0 0 32 32" fill="none" xmlns="http://www.w3.org/2000/svg">
<path d="M10.6666 10.6667L10.6666 9.33334C10.6666 6.38782 13.0544 4.00001 16 4.00001V4.00001C18.9455 4.00001 21.3333 6.38782 21.3333 9.33334L21.3333 10.6667" stroke="#33363F" stroke-width="2" stroke-linecap="round"/>
<path d="M20 18.6667V16" stroke="#33363F" stroke-width="2" stroke-linecap="round"/>
<path d="M12 18.6667V16" stroke="#33363F" stroke-width="2" stroke-linecap="round"/>
<path d="M5.33337 14.6667C5.33337 12.7811 5.33337 11.8382 5.91916 11.2525C6.50495 10.6667 7.44776 10.6667 9.33337 10.6667H22.6667C24.5523 10.6667 25.4951 10.6667 26.0809 11.2525C26.6667 11.8382 26.6667 12.7811 26.6667 14.6667V20C26.6667 23.7712 26.6667 25.6569 25.4951 26.8284C24.3236 28 22.4379 28 18.6667 28H13.3334C9.56214 28 7.67652 28 6.50495 26.8284C5.33337 25.6569 5.33337 23.7712 5.33337 20V14.6667Z" stroke="#33363F" stroke-width="2"/>
</svg>
