<svg width="144" height="66" viewBox="0 0 144 66" fill="none" xmlns="http://www.w3.org/2000/svg">
<circle cx="13" cy="17" r="13" fill="#FFA800"/>
<path d="M25.4805 12.418C24.3789 12.418 23.5195 12.8711 22.9023 13.7773C22.2852 14.6758 21.9766 15.918 21.9766 17.5039C21.9766 20.8008 23.2305 22.4492 25.7383 22.4492C26.4961 22.4492 27.2305 22.3438 27.9414 22.1328C28.6523 21.9219 29.3672 21.668 30.0859 21.3711V25.2852C28.6562 25.918 27.0391 26.2344 25.2344 26.2344C22.6484 26.2344 20.6641 25.4844 19.2812 23.9844C17.9062 22.4844 17.2188 20.3164 17.2188 17.4805C17.2188 15.707 17.5508 14.1484 18.2148 12.8047C18.8867 11.4609 19.8477 10.4297 21.0977 9.71094C22.3555 8.98438 23.832 8.62109 25.5273 8.62109C27.3789 8.62109 29.1484 9.02344 30.8359 9.82812L29.418 13.4727C28.7852 13.1758 28.1523 12.9258 27.5195 12.7227C26.8867 12.5195 26.207 12.418 25.4805 12.418ZM38.0664 19.7656V26H33.4375V8.86719H39.0508C43.707 8.86719 46.0352 10.5547 46.0352 13.9297C46.0352 15.9141 45.0664 17.4492 43.1289 18.5352L48.1211 26H42.8711L39.2383 19.7656H38.0664ZM38.0664 16.2852H38.9336C40.5508 16.2852 41.3594 15.5703 41.3594 14.1406C41.3594 12.9609 40.5664 12.3711 38.9805 12.3711H38.0664V16.2852ZM59.8516 26H49.6797V8.86719H59.8516V12.582H54.3086V15.2773H59.4414V18.9922H54.3086V22.2266H59.8516V26ZM73.3633 26L72.5195 22.7891H66.9531L66.0859 26H61L66.5898 8.79688H72.7656L78.4258 26H73.3633ZM71.5586 18.9922L70.8203 16.1797C70.6484 15.5547 70.4375 14.7461 70.1875 13.7539C69.9453 12.7617 69.7852 12.0508 69.707 11.6211C69.6367 12.0195 69.4961 12.6758 69.2852 13.5898C69.082 14.5039 68.625 16.3047 67.9141 18.9922H71.5586ZM91.4922 20.7969C91.4922 21.8594 91.2227 22.8047 90.6836 23.6328C90.1445 24.4531 89.3672 25.0938 88.3516 25.5547C87.3359 26.0078 86.1445 26.2344 84.7773 26.2344C83.6367 26.2344 82.6797 26.1562 81.9062 26C81.1328 25.8359 80.3281 25.5547 79.4922 25.1562V21.0312C80.375 21.4844 81.293 21.8398 82.2461 22.0977C83.1992 22.3477 84.0742 22.4727 84.8711 22.4727C85.5586 22.4727 86.0625 22.3555 86.3828 22.1211C86.7031 21.8789 86.8633 21.5703 86.8633 21.1953C86.8633 20.9609 86.7969 20.7578 86.6641 20.5859C86.5391 20.4062 86.332 20.2266 86.043 20.0469C85.7617 19.8672 85.0039 19.5 83.7695 18.9453C82.6523 18.4375 81.8125 17.9453 81.25 17.4688C80.6953 16.9922 80.2812 16.4453 80.0078 15.8281C79.7422 15.2109 79.6094 14.4805 79.6094 13.6367C79.6094 12.0586 80.1836 10.8281 81.332 9.94531C82.4805 9.0625 84.0586 8.62109 86.0664 8.62109C87.8398 8.62109 89.6484 9.03125 91.4922 9.85156L90.0742 13.4258C88.4727 12.6914 87.0898 12.3242 85.9258 12.3242C85.3242 12.3242 84.8867 12.4297 84.6133 12.6406C84.3398 12.8516 84.2031 13.1133 84.2031 13.4258C84.2031 13.7617 84.375 14.0625 84.7188 14.3281C85.0703 14.5938 86.0156 15.0781 87.5547 15.7812C89.0312 16.4453 90.0547 17.1602 90.625 17.9258C91.2031 18.6836 91.4922 19.6406 91.4922 20.7969ZM105.344 20.7969C105.344 21.8594 105.074 22.8047 104.535 23.6328C103.996 24.4531 103.219 25.0938 102.203 25.5547C101.188 26.0078 99.9961 26.2344 98.6289 26.2344C97.4883 26.2344 96.5312 26.1562 95.7578 26C94.9844 25.8359 94.1797 25.5547 93.3438 25.1562V21.0312C94.2266 21.4844 95.1445 21.8398 96.0977 22.0977C97.0508 22.3477 97.9258 22.4727 98.7227 22.4727C99.4102 22.4727 99.9141 22.3555 100.234 22.1211C100.555 21.8789 100.715 21.5703 100.715 21.1953C100.715 20.9609 100.648 20.7578 100.516 20.5859C100.391 20.4062 100.184 20.2266 99.8945 20.0469C99.6133 19.8672 98.8555 19.5 97.6211 18.9453C96.5039 18.4375 95.6641 17.9453 95.1016 17.4688C94.5469 16.9922 94.1328 16.4453 93.8594 15.8281C93.5938 15.2109 93.4609 14.4805 93.4609 13.6367C93.4609 12.0586 94.0352 10.8281 95.1836 9.94531C96.332 9.0625 97.9102 8.62109 99.918 8.62109C101.691 8.62109 103.5 9.03125 105.344 9.85156L103.926 13.4258C102.324 12.6914 100.941 12.3242 99.7773 12.3242C99.1758 12.3242 98.7383 12.4297 98.4648 12.6406C98.1914 12.8516 98.0547 13.1133 98.0547 13.4258C98.0547 13.7617 98.2266 14.0625 98.5703 14.3281C98.9219 14.5938 99.8672 15.0781 101.406 15.7812C102.883 16.4453 103.906 17.1602 104.477 17.9258C105.055 18.6836 105.344 19.6406 105.344 20.7969ZM118.164 26H107.992V8.86719H118.164V12.582H112.621V15.2773H117.754V18.9922H112.621V22.2266H118.164V26ZM135.707 17.0703C135.707 19.9297 134.918 22.1328 133.34 23.6797C131.77 25.2266 129.559 26 126.707 26H121.164V8.86719H127.094C129.844 8.86719 131.965 9.57031 133.457 10.9766C134.957 12.3828 135.707 14.4141 135.707 17.0703ZM130.902 17.2344C130.902 15.6641 130.59 14.5 129.965 13.7422C129.348 12.9844 128.406 12.6055 127.141 12.6055H125.793V22.2031H126.824C128.23 22.2031 129.262 21.7969 129.918 20.9844C130.574 20.1641 130.902 18.9141 130.902 17.2344ZM25.4805 45.418C24.3789 45.418 23.5195 45.8711 22.9023 46.7773C22.2852 47.6758 21.9766 48.918 21.9766 50.5039C21.9766 53.8008 23.2305 55.4492 25.7383 55.4492C26.4961 55.4492 27.2305 55.3438 27.9414 55.1328C28.6523 54.9219 29.3672 54.668 30.0859 54.3711V58.2852C28.6562 58.918 27.0391 59.2344 25.2344 59.2344C22.6484 59.2344 20.6641 58.4844 19.2812 56.9844C17.9062 55.4844 17.2188 53.3164 17.2188 50.4805C17.2188 48.707 17.5508 47.1484 18.2148 45.8047C18.8867 44.4609 19.8477 43.4297 21.0977 42.7109C22.3555 41.9844 23.832 41.6211 25.5273 41.6211C27.3789 41.6211 29.1484 42.0234 30.8359 42.8281L29.418 46.4727C28.7852 46.1758 28.1523 45.9258 27.5195 45.7227C26.8867 45.5195 26.207 45.418 25.4805 45.418ZM49.4688 50.4102C49.4688 53.293 48.7617 55.4844 47.3477 56.9844C45.9336 58.4844 43.8633 59.2344 41.1367 59.2344C38.4492 59.2344 36.3867 58.4805 34.9492 56.9727C33.5195 55.4648 32.8047 53.2695 32.8047 50.3867C32.8047 47.5352 33.5156 45.3594 34.9375 43.8594C36.3672 42.3516 38.4414 41.5977 41.1602 41.5977C43.8867 41.5977 45.9531 42.3438 47.3594 43.8359C48.7656 45.3281 49.4688 47.5195 49.4688 50.4102ZM37.6797 50.4102C37.6797 53.7227 38.832 55.3789 41.1367 55.3789C42.3086 55.3789 43.1758 54.9766 43.7383 54.1719C44.3086 53.3672 44.5938 52.1133 44.5938 50.4102C44.5938 48.6992 44.3047 47.4375 43.7266 46.625C43.1562 45.8047 42.3008 45.3945 41.1602 45.3945C38.8398 45.3945 37.6797 47.0664 37.6797 50.4102ZM51.7188 57.0547C51.7188 56.3359 51.9297 55.7812 52.3516 55.3906C52.7812 55 53.4023 54.8047 54.2148 54.8047C54.9883 54.8047 55.582 55 55.9961 55.3906C56.4102 55.7812 56.6172 56.3359 56.6172 57.0547C56.6172 57.7578 56.4023 58.3086 55.9727 58.707C55.5508 59.0977 54.9648 59.293 54.2148 59.293C53.4414 59.293 52.832 59.0977 52.3867 58.707C51.9414 58.3164 51.7188 57.7656 51.7188 57.0547Z" fill="black"/>
</svg>
